<svg width="512" height="512" viewBox="0 0 512 512" fill="none" xmlns="http://www.w3.org/2000/svg">
  <rect width="512" height="512" rx="128" fill="url(#paint0_linear)"/>
  <path d="M255.998 111.999C186.353 111.999 128 167.038 128 234.667C128 294.215 173.919 350.783 234.665 399.999C242.369 406.061 249.186 411.309 255.998 415.998C262.811 411.309 269.627 406.061 277.332 399.999C338.078 350.783 383.997 294.215 383.997 234.667C383.997 167.038 325.644 111.999 255.998 111.999Z" fill="white"/>
  <path d="M325.334 202.667C325.334 185.82 311.514 171.999 294.667 171.999H217.334C200.487 171.999 186.667 185.82 186.667 202.667V266.666C186.667 283.513 200.487 297.333 217.334 297.333H294.667C311.514 297.333 325.334 283.513 325.334 266.666V202.667Z" fill="url(#paint1_linear)"/>
  <path d="M304.001 216.001L232.001 288.001" stroke="white" stroke-width="16" stroke-linecap="round"/>
  <path d="M304.001 288.001L232.001 216.001" stroke="white" stroke-width="16" stroke-linecap="round"/>
  <defs>
    <linearGradient id="paint0_linear" x1="0" y1="0" x2="512" y2="512" gradientUnits="userSpaceOnUse">
      <stop stop-color="#4F46E5"/>
      <stop offset="1" stop-color="#7E22CE"/>
    </linearGradient>
    <linearGradient id="paint1_linear" x1="186.667" y1="171.999" x2="325.334" y2="297.333" gradientUnits="userSpaceOnUse">
      <stop stop-color="#EF4444"/>
      <stop offset="1" stop-color="#F43F5E"/>
    </linearGradient>
  </defs>
</svg> 