<svg xmlns="http://www.w3.org/2000/svg" width="32" height="32" viewBox="0 0 32 32">
  <rect width="32" height="32" rx="4" fill="#2563EB" />
  <path d="M16 6C10.48 6 6 10.48 6 16C6 21.52 10.48 26 16 26C21.52 26 26 21.52 26 16C26 10.48 21.52 6 16 6ZM16 8C20.42 8 24 11.58 24 16C24 20.42 20.42 24 16 24C11.58 24 8 20.42 8 16C8 11.58 11.58 8 16 8Z" fill="white" />
  <path d="M17 11V10H15V11C13.35 11.25 12 12.7 12 14.5C12 16.43 13.57 18 15.5 18C16.33 18 17 18.67 17 19.5C17 20.33 16.33 21 15.5 21C14.67 21 14 20.33 14 19.5H12C12 21.3 13.35 22.75 15 23V24H17V23C18.65 22.75 20 21.3 20 19.5C20 17.57 18.43 16 16.5 16C15.67 16 15 15.33 15 14.5C15 13.67 15.67 13 16.5 13C17.33 13 18 13.67 18 14.5H20C20 12.7 18.65 11.25 17 11Z" fill="white" />
</svg> 